<svg xmlns="http://www.w3.org/2000/svg" xmlns:xlink="http://www.w3.org/1999/xlink" viewBox="0 0 177.8 181.82"><defs><linearGradient id="a" x1="490.29" y1="510.16" x2="597.05" y2="449.53" gradientTransform="matrix(1, 0, 0, -1, 0, 1026)" gradientUnits="userSpaceOnUse"><stop offset="0" stop-color="#1a237e" stop-opacity="0.2"/><stop offset="1" stop-color="#1a237e" stop-opacity="0.02"/></linearGradient><radialGradient id="b" cx="488.17" cy="592.71" r="202.93" gradientTransform="matrix(1, 0, 0, -1, 0, 1026)" gradientUnits="userSpaceOnUse"><stop offset="0" stop-color="#fff" stop-opacity="0.1"/><stop offset="1" stop-color="#fff" stop-opacity="0"/></radialGradient></defs><title>Android Auto logo - Brandlogos.net</title><path d="M435.22,578.66a12.12,12.12,0,0,1-12.12-12.12,12,12,0,0,1,1.62-6l76.76-133.33a12.11,12.11,0,0,1,21,0l76.77,133.33a12,12,0,0,1,1.62,6,12.12,12.12,0,0,1-12.12,12.12H435.22Z" transform="translate(-423.1 -421.09)" style="fill:#03a9f4"/><path d="M600.87,566.55,512,477.65v101h76.77A12.12,12.12,0,0,0,600.87,566.55Z" transform="translate(-423.1 -421.09)" style="fill:url(#a)"/><path d="M501.48,427.17,424.72,560.48a12,12,0,0,0-1.62,6,12.12,12.12,0,0,0,12.12,12.12H512V421.09a12.12,12.12,0,0,0-10.51,6.07Z" transform="translate(-423.1 -421.09)" style="fill:#039be5"/><path d="M512,477.65l68.68,121.21-4,4L512,578.67,447.33,602.9l-4-4Z" transform="translate(-423.1 -421.09)" style="fill:#f1f1f1"/><path d="M512,477.65l68.68,121.21-4,4L512,578.67" transform="translate(-423.1 -421.09)" style="fill:#e1e1e1"/><polygon points="88.88 57.6 157.19 178.15 157.56 177.77 88.88 56.56 20.19 177.76 20.57 178.14 88.88 57.6" style="fill:#fff;opacity:0.20000000298023224;isolation:isolate"/><path d="M454.74,577.76H435.22a12.13,12.13,0,0,1-12.12-11.68c0,.15,0,.3,0,.46a12.12,12.12,0,0,0,12.12,12.12h19Z" transform="translate(-423.1 -421.09)" style="fill:#1a237e;opacity:0.20000000298023224;isolation:isolate"/><polygon points="153.52 180.91 88.87 156.67 24.24 180.91 20.52 177.18 20.19 177.76 24.24 181.81 88.87 157.58 153.52 181.82 157.56 177.77 157.24 177.2 153.52 180.91" style="opacity:0.07000000029802322;isolation:isolate"/><path d="M600.86,566.08c0,.06,0,.12,0,.18h0l0,.3h0c0,.1,0,.2,0,.3h0a12,12,0,0,1-2.53,6.24h0l-.18.22h0l-.19.22h0l-.19.21h0l-.19.21h0l-.19.2h0l-.2.19h0l-.2.19h0l-.21.18,0,0-.19.16,0,0-.19.16,0,0-.19.15,0,0-.21.15,0,0-.2.14-.06,0-.19.12-.06,0L595,576l-.05,0-.2.12-.07,0-.19.1-.07,0-.19.1-.08,0-.18.09-.09,0-.17.08-.08,0-.19.08-.09,0-.18.08-.1,0-.17.06-.11,0-.17.06-.12,0-.17.05-.14,0-.15,0-.12,0-.16,0-.13,0-.16,0-.16,0-.13,0-.16,0-.14,0-.16,0-.14,0-.16,0-.14,0-.19,0H569.23l.51.9h19c.32,0,.63,0,.93,0h.05l.26,0h0l.29,0h.06l.24,0h.08l.23,0,.09,0,.21,0,.08,0,.21,0,.11,0,.18,0,.13,0,.16,0,.12,0,.17-.05.13,0,.16-.05.14-.05.14,0,.14-.06.13-.05.16-.06.12,0,.16-.07.11,0,.16-.07.11-.05.16-.08.1-.05.17-.09.09,0,.17-.1.08,0L595,577l.07,0,.19-.12.06,0,.19-.12.06,0,.19-.14,0,0,.19-.14,0,0,.19-.14,0,0,.19-.15,0,0,.18-.16,0,0,.19-.17,0,0,.2-.19h0l.19-.19h0l.19-.2h0l.19-.21h0l.18-.21h0l.19-.22h0l.18-.22h0l.17-.23h0a12,12,0,0,0,2.35-6h0c0-.1,0-.2,0-.3h0l0-.3h0c0-.1,0-.19,0-.29v0c0-.1,0-.19,0-.29v0h0A2.45,2.45,0,0,1,600.86,566.08Z" transform="translate(-423.1 -421.09)" style="fill:#1a237e;opacity:0.20000000298023224;isolation:isolate"/><path d="M424.72,561.39l76.76-133.32a12.2,12.2,0,0,1,4.36-4.4A12,12,0,0,1,512,422h0a12.1,12.1,0,0,1,10.49,6.07L599.25,561.4a12,12,0,0,1,1.61,5.59.63.63,0,0,1,0-.11v0c0-.1,0-.19,0-.29v0h0a12,12,0,0,0-1.62-6L522.48,427.17A12.12,12.12,0,0,0,512,421.09h0a12,12,0,0,0-6.14,1.67,12.17,12.17,0,0,0-4.36,4.4L424.72,560.48a12,12,0,0,0-1.62,6c0,.15,0,.3,0,.45A12,12,0,0,1,424.72,561.39Z" transform="translate(-423.1 -421.09)" style="fill:#fff;opacity:0.20000000298023224;isolation:isolate"/><path d="M597.71,574.7h0l.18-.21h0l.19-.22h0l.18-.22h0l.17-.23h0a12,12,0,0,0,2.35-6h0c0-.1,0-.2,0-.3h0l0-.3h0c0-.1,0-.19,0-.29v0c0-.1,0-.19,0-.29v0h0a12,12,0,0,0-1.62-6L522.48,427.17A12.12,12.12,0,0,0,512,421.09h0a12,12,0,0,0-6.14,1.67,12.17,12.17,0,0,0-4.36,4.4L424.72,560.48a12,12,0,0,0-1.62,6,12.12,12.12,0,0,0,12.12,12.12h19.52l-11.44,20.19,4,4L512,578.66l64.65,24.24,4-4-11.44-20.2h19.53c.32,0,.63,0,.93,0h.05l.26,0h0l.29,0h.06l.24,0h.08l.23,0,.09,0,.21,0,.08,0,.21,0,.11,0,.18,0,.13,0,.16,0,.12,0,.17-.05.13,0,.16-.05.14-.05.14,0,.14-.06.13-.05.16-.06.12,0,.16-.07.11,0,.16-.07.11-.05.16-.08.1-.05.17-.09.09,0,.17-.1.08,0,.18-.11.07,0,.19-.12.06,0,.19-.12.06,0,.19-.14,0,0,.19-.14,0,0,.19-.14,0,0,.19-.15,0,0,.18-.16,0,0,.19-.17,0,0,.2-.19h0l.19-.19h0l.19-.2h0Z" transform="translate(-423.1 -421.09)" style="fill:url(#b)"/></svg>